<?xml version="1.0" standalone="no"?>
<svg xmlns="http://www.w3.org/2000/svg" xmlns:xlink="http://www.w3.org/1999/xlink" width="108pt" height="332pt" viewBox="0.00 0.00 107.59 332">
<g id="graph0" class="graph" transform="translate(4,328) scale(1)" data-name="G">

<polygon fill="white" stroke="none" points="-4,4 -4,-328 103.59,-328 103.59,4 -4,4"/>
<!-- pr -->
<g id="node1" class="node" pointer-events="visible" data-name="guard" data-comment="pr">

<polygon fill="none" stroke="black" points="59,-324 5,-324 5,-288 59,-288 59,-324"/>
<text text-anchor="middle" x="32" y="-301.8" font-family="Times,serif" font-size="14.00">guard</text>
</g>
<!-- e -->
<g id="node2" class="node" pointer-events="visible" data-name="exit" data-comment="e">

<polygon fill="none" stroke="black" points="54,-36 0,-36 0,0 54,0 54,-36"/>
<text text-anchor="middle" x="27" y="-13.8" font-family="Times,serif" font-size="14.00">exit</text>
</g>
<!-- guard&#45;&gt;e -->
<g id="edge1" class="edge" data-name="guard-&gt;exit" data-comment="guard-&gt;e">

<path fill="none" stroke="black" d="M26.59,-287.53C23.7,-277.29 20.45,-264.04 19,-252 10.14,-178.72 17.96,-91.61 23.2,-47.56"/>
<polygon fill="black" stroke="black" points="26.65,-48.18 24.4,-37.83 19.7,-47.32 26.65,-48.18"/>
</g>
<!-- p -->
<g id="node3" class="node" pointer-events="visible" data-name="preheader" data-comment="p">

<polygon fill="none" stroke="black" points="99.68,-252 28.32,-252 28.32,-216 99.68,-216 99.68,-252"/>
<text text-anchor="middle" x="64" y="-229.8" font-family="Times,serif" font-size="14.00">preheader</text>
</g>
<!-- guard&#45;&gt;p -->
<g id="edge2" class="edge" data-name="guard-&gt;preheader" data-comment="guard-&gt;p">

<path fill="none" stroke="black" d="M39.91,-287.7C43.4,-280.07 47.58,-270.92 51.48,-262.4"/>
<polygon fill="black" stroke="black" points="54.58,-264.03 55.55,-253.48 48.21,-261.12 54.58,-264.03"/>
</g>
<!-- b -->
<g id="node4" class="node" pointer-events="visible" data-name="body" data-comment="b">

<polygon fill="none" stroke="black" points="86,-180 32,-180 32,-144 86,-144 86,-180"/>
<text text-anchor="middle" x="59" y="-157.8" font-family="Times,serif" font-size="14.00">body</text>
</g>
<!-- preheader&#45;&gt;b -->
<g id="edge3" class="edge" data-name="preheader-&gt;body" data-comment="preheader-&gt;b">

<path fill="none" stroke="black" d="M62.76,-215.7C62.24,-208.41 61.62,-199.73 61.04,-191.54"/>
<polygon fill="black" stroke="black" points="64.53,-191.34 60.33,-181.61 57.55,-191.84 64.53,-191.34"/>
</g>
<!-- l -->
<g id="node5" class="node" pointer-events="visible" data-name="latch" data-comment="l">

<polygon fill="none" stroke="black" points="86,-108 32,-108 32,-72 86,-72 86,-108"/>
<text text-anchor="middle" x="59" y="-85.8" font-family="Times,serif" font-size="14.00">latch</text>
</g>
<!-- body&#45;&gt;l -->
<g id="edge4" class="edge" data-name="body-&gt;latch" data-comment="body-&gt;l">

<path fill="none" stroke="black" d="M53.08,-143.7C52.33,-136.41 52.09,-127.73 52.35,-119.54"/>
<polygon fill="black" stroke="black" points="55.84,-119.82 53.01,-109.61 48.86,-119.36 55.84,-119.82"/>
</g>
<!-- b -->
<g id="edge5" class="edge" data-name="latch-&gt;body" data-comment="b">

<path fill="none" stroke="black" d="M64.9,-108.1C65.66,-115.37 65.91,-124.04 65.65,-132.24"/>
<polygon fill="black" stroke="black" points="62.16,-131.98 65.01,-142.19 69.15,-132.43 62.16,-131.98"/>
</g><g id="edge6" class="edge" data-name="latch-&gt;exit" data-comment="b">

<path fill="none" stroke="black" d="M51.09,-71.7C47.6,-64.07 43.42,-54.92 39.52,-46.4"/>
<polygon fill="black" stroke="black" points="42.79,-45.12 35.45,-37.48 36.42,-48.03 42.79,-45.12"/>
</g>
<!-- e -->

</g>
</svg>